<svg width="110" height="36" viewBox="0 0 110 36" fill="none" xmlns="http://www.w3.org/2000/svg">
<g clip-path="url(#clip0_504_2046)">
<g clip-path="url(#clip1_504_2046)">
<mask id="mask0_504_2046" style="mask-type:luminance" maskUnits="userSpaceOnUse" x="0" y="6" width="110" height="24">
<path d="M0 6.04346H110V29.9565H0V6.04346Z" fill="white"/>
</mask>
<g mask="url(#mask0_504_2046)">
<path d="M106.974 29.9565C106.088 29.9565 105.358 29.7004 104.787 29.1878C104.235 28.6559 103.96 28.0055 103.96 27.2371C103.96 26.4487 104.235 25.7887 104.787 25.2565C105.358 24.7246 106.088 24.4586 106.974 24.4586C107.841 24.4586 108.551 24.7243 109.103 25.2565C109.674 25.7887 109.96 26.4487 109.96 27.2371C109.96 28.0055 109.674 28.6559 109.103 29.1878C108.551 29.7004 107.841 29.9565 106.974 29.9565ZM83.5431 21.4435C83.5431 19.7488 83.8585 18.2612 84.489 16.9802C85.1395 15.6995 86.0163 14.7141 87.1197 14.0243C88.2235 13.3345 89.455 12.9899 90.8146 12.9899C91.9773 12.9899 92.9922 13.2264 93.8592 13.6994C94.7459 14.1723 95.4258 14.793 95.8988 15.5614V13.2261H100.953V29.72H95.8988V27.3848C95.4061 28.1535 94.7164 28.7744 93.8297 29.2471C92.9625 29.72 91.9478 29.9565 90.7851 29.9565C89.4452 29.9565 88.2235 29.6116 87.1197 28.9219C86.0163 28.2124 85.1395 27.2174 84.489 25.9365C83.8585 24.6358 83.5431 23.1384 83.5431 21.4435ZM95.8988 21.4732C95.8988 20.2119 95.544 19.2169 94.8346 18.4878C94.1449 17.7587 93.2975 17.3939 92.2927 17.3939C91.2875 17.3939 90.4304 17.7587 89.7209 18.4878C89.0312 19.1972 88.6863 20.1824 88.6863 21.4437C88.6863 22.7047 89.0312 23.7099 89.7209 24.4586C90.4304 25.1877 91.2875 25.5522 92.2927 25.5522C93.2975 25.5522 94.1449 25.1877 94.8346 24.4586C95.544 23.7295 95.8988 22.7342 95.8988 21.4732ZM80.8851 7.84623V29.72H75.8304V7.84623H80.8851ZM69.655 11.5116C68.7681 11.5116 68.039 11.2557 67.4677 10.7434C66.9159 10.2112 66.6401 9.56107 66.6401 8.79239C66.6401 8.00406 66.9159 7.35389 67.4677 6.84162C68.039 6.30916 68.7681 6.04346 69.655 6.04346C70.522 6.04346 71.2314 6.30942 71.7832 6.84162C72.3548 7.35389 72.6404 8.00406 72.6404 8.79239C72.6404 9.56107 72.3548 10.2112 71.7832 10.7434C71.2314 11.2557 70.522 11.5116 69.655 11.5116ZM72.1674 13.2261V29.72H67.113V13.2261H72.1674ZM57.2462 13.0487C59.1773 13.0487 60.7144 13.6792 61.8575 14.9404C63.0199 16.1818 63.6013 17.8964 63.6013 20.0836V29.72H58.5763V20.7635C58.5763 19.6601 58.2907 18.8027 57.7192 18.1918C57.1477 17.581 56.3793 17.2757 55.4134 17.2757C54.4479 17.2757 53.6795 17.5812 53.1079 18.1918C52.5364 18.8029 52.2508 19.6601 52.2508 20.7635V29.7198H47.1961V13.2261H52.2508V15.4134C52.7631 14.6843 53.4528 14.1128 54.3198 13.6991C55.1871 13.2655 56.1624 13.0487 57.2462 13.0487ZM26.129 21.4435C26.129 19.7488 26.4441 18.2612 27.0749 16.9802C27.725 15.6995 28.6021 14.7141 29.7056 14.0243C30.809 13.3345 32.0406 12.9899 33.4004 12.9899C34.5631 12.9899 35.5778 13.2264 36.4448 13.6994C37.3317 14.1723 38.0116 14.793 38.4846 15.5614V13.2261H43.539V29.72H38.4846V27.3848C37.9917 28.1535 37.3022 28.7744 36.4153 29.2471C35.5483 29.72 34.5334 29.9565 33.3709 29.9565C32.0307 29.9565 30.809 29.6116 29.7056 28.9219C28.6021 28.2124 27.725 27.2174 27.0749 25.9365C26.4441 24.6358 26.129 23.1384 26.129 21.4435ZM38.4846 21.4732C38.4846 20.2119 38.1299 19.2169 37.4205 18.4878C36.7307 17.7587 35.8834 17.3939 34.8782 17.3939C33.8734 17.3939 33.0162 17.7587 32.3068 18.4878C31.617 19.1972 31.2722 20.1824 31.2722 21.4437C31.2722 22.7047 31.617 23.7099 32.3068 24.4586C33.0162 25.1877 33.8734 25.5522 34.8782 25.5522C35.8834 25.5522 36.7307 25.1877 37.4205 24.4586C38.1299 23.7295 38.4846 22.7342 38.4846 21.4732ZM23.4991 8.96935V29.7195H18.4449V17.2751L13.8039 29.7195H9.72464L5.05442 17.2454V29.7192H0V8.96935H5.97082L11.7939 23.3347L17.5578 8.96935H23.4991Z" fill="#003588"/>
</g>
</g>
</g>
<defs>
<clipPath id="clip0_504_2046">
<rect width="110" height="36" fill="white"/>
</clipPath>
<clipPath id="clip1_504_2046">
<rect width="110" height="23.913" fill="white" transform="translate(0 6.04346)"/>
</clipPath>
</defs>
</svg>
