<svg width="110" height="36" viewBox="0 0 110 36" fill="none" xmlns="http://www.w3.org/2000/svg">
<g clip-path="url(#clip0_504_2063)">
<g clip-path="url(#clip1_504_2063)">
<mask id="mask0_504_2063" style="mask-type:luminance" maskUnits="userSpaceOnUse" x="0" y="6" width="110" height="24">
<path d="M0 6.5415H110V29.4582H0V6.5415Z" fill="white"/>
</mask>
<g mask="url(#mask0_504_2063)">
<path d="M8.30844 28.9414C6.07292 28.8669 4.38281 28.3616 3.23927 27.4254C2.09573 26.4641 1.27073 25.3927 0.761979 24.2102C0.264487 23.0539 0.0053264 21.8092 0 20.5504C0 19.2694 0.240625 18.0365 0.724167 16.854C1.23177 15.6463 2.05792 14.5738 3.20146 13.6388C4.37021 12.6763 5.84375 12.1836 7.62208 12.1606H19.9719C21.7502 12.1836 23.2111 12.6763 24.3547 13.6388C25.5234 14.5749 26.3484 15.6463 26.832 16.854C27.3367 18.0209 27.596 19.2791 27.594 20.5504C27.594 21.7822 27.3396 23.0025 26.832 24.2091C26.3232 25.3927 25.4982 26.4641 24.3547 27.4254C23.2111 28.3616 21.521 28.8669 19.2855 28.9414H8.30844ZM7.46969 17.1129C6.98729 17.1129 6.56792 17.31 6.21271 17.7042C5.8575 18.0743 5.58938 18.5177 5.41177 19.0345C5.25938 19.5272 5.1826 20.0199 5.1826 20.5126C5.1826 21.0305 5.25938 21.5484 5.41177 22.0664C5.58938 22.5591 5.85635 23.0025 6.21271 23.3955C6.56792 23.7656 6.98729 23.9627 7.46969 23.9879H20.1231C20.604 23.9644 21.0562 23.7519 21.3813 23.3967C21.7365 23.0025 21.9908 22.5591 22.1432 22.0652C22.3208 21.5485 22.4102 21.0305 22.4102 20.5138C22.4102 20.0211 22.3208 19.5283 22.1432 19.0356C22.0016 18.5363 21.74 18.0792 21.3813 17.7042C21.026 17.31 20.6055 17.1129 20.1231 17.1129H7.46969ZM56.1779 14.3033C56.1779 14.9198 55.9235 15.4377 55.4159 15.8559C54.9335 16.2501 54.3354 16.4472 53.625 16.4472H37.5031C37.1731 16.4472 36.9061 16.5091 36.7033 16.6328C36.5237 16.7343 36.3676 16.8725 36.245 17.0385C36.1442 17.1622 36.0926 17.2733 36.0926 17.3707C36.1015 17.5187 36.155 17.6606 36.2461 17.7775C36.347 17.9013 36.4994 18.025 36.7033 18.1476C36.9061 18.2462 37.1731 18.308 37.5031 18.3321H49.9664C51.5659 18.3573 52.8882 18.6644 53.9298 19.2568C54.9714 19.824 55.7081 20.5012 56.1401 21.2895C56.5973 22.0538 56.8253 22.8295 56.8253 23.6178C56.8253 24.3821 56.5961 25.1578 56.1401 25.9473C55.6818 26.7104 54.9335 27.3888 53.8908 27.98C52.8745 28.5461 51.5659 28.8302 49.9664 28.8302C49.7633 28.8504 49.5596 28.8627 49.3556 28.8669H34.5698C33.8594 28.8669 33.2486 28.6698 32.7399 28.2756C32.2586 27.8563 32.0169 27.351 32.0169 26.7597C32.0169 26.1444 32.2701 25.6265 32.7789 25.2071C33.2613 24.8129 33.8582 24.6158 34.5698 24.6158H50.2723C50.6527 24.6411 50.9575 24.5918 51.1867 24.468C51.4399 24.3454 51.6313 24.2091 51.7584 24.0613C51.8736 23.9415 51.9412 23.7838 51.9487 23.6178C51.9487 23.5445 51.8856 23.4207 51.7584 23.2489C51.6203 23.0431 51.4193 22.8875 51.1855 22.8054C50.9575 22.6817 50.6527 22.6083 50.2723 22.5831H37.7713C36.2977 22.5591 35.0785 22.2623 34.1126 21.6963C33.1467 21.105 32.4603 20.4267 32.0547 19.6636C31.6479 18.8993 31.444 18.135 31.444 17.3719C31.444 16.6076 31.6479 15.856 32.0547 15.1169C32.4867 14.3526 33.1719 13.6995 34.1126 13.1575C35.0785 12.5915 36.2977 12.2832 37.7713 12.234C37.9612 12.2133 38.152 12.2011 38.343 12.1973H53.625C54.3354 12.1973 54.9335 12.4058 55.4159 12.8252C55.9235 13.2194 56.1779 13.7121 56.1779 14.3033ZM63.6854 6.54147C64.3429 6.55415 64.9704 6.81869 65.4385 7.28053C65.6732 7.49053 65.8621 7.74665 65.9934 8.03291C66.1247 8.31916 66.1956 8.62941 66.2017 8.94428V27.0553C66.0481 28.5334 65.2105 29.3355 63.6854 29.4581C63.0033 29.468 62.3403 29.2321 61.8177 28.7936C61.5727 28.5761 61.3777 28.3081 61.2461 28.008C61.1146 27.7079 61.0496 27.3829 61.0557 27.0553V8.94428C61.0603 8.62014 61.1342 8.30074 61.2723 8.00747C61.4105 7.7142 61.6097 7.45385 61.8567 7.24387C62.3517 6.78077 63.0077 6.52881 63.6854 6.54147ZM78.9296 28.9414C76.6929 28.8669 75.004 28.3616 73.8604 27.4254C72.7169 26.4641 71.8919 25.3927 71.3831 24.2102C70.8856 23.0539 70.6265 21.8092 70.6211 20.5504C70.6211 19.2694 70.8618 18.0365 71.3453 16.854C71.8529 15.6463 72.6791 14.5738 73.8226 13.6388C74.9914 12.6763 76.4649 12.1836 78.2432 12.1606H90.5919C92.3702 12.1836 93.8312 12.6763 94.9747 13.6388C96.1434 14.5749 96.9684 15.6463 97.452 16.854C97.9567 18.0209 98.216 19.2791 98.214 20.5504C98.214 21.7822 97.9596 23.0025 97.452 24.2091C96.9432 25.3927 96.1182 26.4641 94.9747 27.4254C93.8312 28.3616 92.141 28.8669 89.9055 28.9414H78.9296ZM78.0908 17.1129C77.6084 17.1129 77.1891 17.31 76.8327 17.7042C76.4775 18.0743 76.2105 18.5177 76.0329 19.0345C75.8805 19.5272 75.8037 20.0199 75.8037 20.5126C75.8037 21.0305 75.8805 21.5484 76.0329 22.0664C76.2105 22.5591 76.4775 23.0025 76.8327 23.3955C77.1879 23.7656 77.6084 23.9627 78.0908 23.9879H90.7443C91.2248 23.9641 91.6765 23.7516 92.0013 23.3967C92.3565 23.0025 92.612 22.5591 92.7644 22.0652C92.942 21.5485 93.0302 21.0305 93.0302 20.5138C93.0302 20.0211 92.942 19.5283 92.7644 19.0356C92.6223 18.5363 92.3603 18.0792 92.0013 17.7042C91.646 17.31 91.2267 17.1129 90.7443 17.1129H78.0908ZM106.4 29.4581C106.758 29.4581 107.113 29.3876 107.444 29.2505C107.775 29.1134 108.076 28.9124 108.329 28.6591C108.582 28.4057 108.783 28.105 108.92 27.774C109.057 27.443 109.128 27.0882 109.128 26.7299C109.128 26.3716 109.057 26.0169 108.92 25.6859C108.783 25.3549 108.582 25.0541 108.329 24.8008C108.076 24.5474 107.775 24.3465 107.444 24.2094C107.113 24.0722 106.758 24.0017 106.4 24.0017C105.676 24.0017 104.982 24.2891 104.471 24.8008C103.959 25.3124 103.672 26.0063 103.672 26.7299C103.672 27.4535 103.959 28.1474 104.471 28.6591C104.982 29.1707 105.676 29.4581 106.4 29.4581Z" fill="#003588"/>
</g>
</g>
</g>
<defs>
<clipPath id="clip0_504_2063">
<rect width="110" height="36" fill="white"/>
</clipPath>
<clipPath id="clip1_504_2063">
<rect width="110" height="22.9167" fill="white" transform="translate(0 6.5415)"/>
</clipPath>
</defs>
</svg>
