<svg width="110" height="36" viewBox="0 0 110 36" fill="none" xmlns="http://www.w3.org/2000/svg">
<g clip-path="url(#clip0_504_2054)">
<g clip-path="url(#clip1_504_2054)">
<mask id="mask0_504_2054" style="mask-type:luminance" maskUnits="userSpaceOnUse" x="0" y="5" width="110" height="26">
<path d="M0 5.8999H110V30.0999H0V5.8999Z" fill="white"/>
</mask>
<g mask="url(#mask0_504_2054)">
<path d="M37.8216 29.0882C35.2839 29.0882 33.305 28.3876 31.8838 26.9829C30.4802 25.5793 29.7773 23.575 29.7773 20.9691V11.0229H33.888V20.8173C33.888 23.9974 35.208 25.5881 37.8469 25.5881C39.1328 25.5881 40.1129 25.2075 40.7905 24.4463C41.467 23.6675 41.8047 22.4585 41.8047 20.8162V11.024H45.8648V20.9702C45.8648 23.5761 45.1542 25.5803 43.7341 26.9839C42.3294 28.3886 40.3593 29.0905 37.8216 29.0905V29.0882ZM47.8679 20.0572H55.0487V23.2285H47.8679V20.0572ZM59.9371 14.3724H54.2523V11.0229H69.7315V14.3724H64.0478V28.7847H59.9371V14.3724ZM83.8555 15.1336V28.7847H80.1001V27.161C79.5813 27.749 78.9406 28.2167 78.2224 28.5316C77.4744 28.84 76.6721 28.9952 75.8629 28.9881C74.07 28.9881 72.6487 28.4712 71.5993 27.4405C70.551 26.4087 70.0263 24.8774 70.0263 22.8479V15.1336H73.9852V22.2638C73.9852 24.4638 74.907 25.5627 76.7506 25.5627C77.6977 25.5627 78.4589 25.258 79.0342 24.6497C79.6095 24.0227 79.8966 23.1009 79.8966 21.8832V15.1336H83.8555ZM90.032 16.9354C90.5144 16.2688 91.1735 15.7502 91.9351 15.4383C92.7468 15.0995 93.6774 14.9301 94.7268 14.9301V18.5843C94.2868 18.5513 93.9898 18.5337 93.838 18.5337C92.705 18.5337 91.8173 18.8549 91.1738 19.4985C90.5314 20.1243 90.2102 21.0714 90.2102 22.3397V28.7858H86.2514V15.1336H90.032V16.9354ZM104.11 14.9312C105.802 14.9312 107.163 15.4372 108.195 16.4536C109.244 17.4678 109.768 18.9726 109.768 20.9702V28.7858H105.809V21.5786C105.809 20.4962 105.573 19.6931 105.1 19.1684C104.626 18.6272 103.94 18.3566 103.043 18.3566C102.046 18.3566 101.251 18.669 100.659 19.2949C100.066 19.9043 99.7703 20.8173 99.7703 22.035V28.7858H95.8125V15.1336H99.5932V16.7319C100.133 16.1461 100.802 15.6942 101.547 15.4119C102.361 15.0837 103.232 14.92 104.11 14.9301V14.9312Z" fill="#003588"/>
<path fill-rule="evenodd" clip-rule="evenodd" d="M12.0916 6.40626C12.2521 6.24558 12.4427 6.11812 12.6524 6.03115C12.8622 5.94418 13.0871 5.89941 13.3142 5.89941C13.5413 5.89941 13.7662 5.94418 13.976 6.03115C14.1858 6.11812 14.3764 6.24558 14.5369 6.40626L20.8586 12.728L14.5083 18.789C14.3441 18.9457 14.1507 19.0686 13.939 19.1505C13.7274 19.2325 13.5016 19.272 13.2747 19.2667C12.8164 19.2561 12.3812 19.0639 12.0646 18.7323C11.9079 18.5681 11.785 18.3747 11.703 18.163C11.6211 17.9514 11.5816 17.7257 11.5868 17.4988C11.5975 17.0405 11.7897 16.6052 12.1213 16.2887L14.0705 14.4275H9.85747C8.23759 14.4275 6.68406 15.071 5.53864 16.2164C4.39321 17.3618 3.74972 18.9153 3.74972 20.5352C3.74972 22.1551 4.39321 23.7086 5.53864 24.854C6.68406 25.9995 8.23759 26.643 9.85747 26.643H18.3847C18.6153 26.6371 18.8449 26.6776 19.0597 26.7618C19.2745 26.8461 19.4703 26.9725 19.6355 27.1336C19.8007 27.2947 19.932 27.4872 20.0216 27.6998C20.1113 27.9124 20.1575 28.1409 20.1575 28.3716C20.1575 28.6024 20.1113 28.8308 20.0216 29.0434C19.932 29.256 19.8007 29.4486 19.6355 29.6097C19.4703 29.7708 19.2745 29.8972 19.0597 29.9814C18.8449 30.0657 18.6153 30.1061 18.3847 30.1003H9.85747C7.32081 30.1003 4.88804 29.0926 3.09435 27.2989C1.30065 25.5052 0.292969 23.0724 0.292969 20.5358C0.292969 17.9991 1.30065 15.5663 3.09435 13.7726C4.88804 11.9789 7.32081 10.9713 9.85747 10.9713H14.2113L12.0916 8.85156C11.7673 8.52728 11.5852 8.08749 11.5852 7.62891C11.5852 7.17034 11.7673 6.73054 12.0916 6.40626Z" fill="#003588"/>
</g>
</g>
</g>
<defs>
<clipPath id="clip0_504_2054">
<rect width="110" height="36" fill="white"/>
</clipPath>
<clipPath id="clip1_504_2054">
<rect width="110" height="24.2" fill="white" transform="translate(0 5.8999)"/>
</clipPath>
</defs>
</svg>
