<svg width="110" height="36" viewBox="0 0 110 36" fill="none" xmlns="http://www.w3.org/2000/svg">
<g clip-path="url(#clip0_504_2081)">
<g clip-path="url(#clip1_504_2081)">
<g clip-path="url(#clip2_504_2081)">
<mask id="mask0_504_2081" style="mask-type:luminance" maskUnits="userSpaceOnUse" x="0" y="6" width="110" height="24">
<path d="M0 6.66113H110V29.3389H0V6.66113Z" fill="white"/>
</mask>
<g mask="url(#mask0_504_2081)">
<path d="M89.4355 7.7041V28.0359H92.4113V7.7041H89.4355Z" fill="#003588"/>
<path fill-rule="evenodd" clip-rule="evenodd" d="M62.5271 28.3635C61.3528 28.3635 60.372 28.0898 59.5842 27.5429C59.4984 27.4834 59.4145 27.4212 59.3327 27.3563V28.0353H56.707V8.03174H59.7047V16.6013C60.44 16.1285 61.3296 15.892 62.3739 15.892C63.5044 15.892 64.4889 16.1618 65.3277 16.7014C66.1665 17.241 66.8156 17.9813 67.2748 18.9223C67.7417 19.856 67.975 20.9242 67.975 22.1276C67.975 23.3092 67.7454 24.3704 67.2858 25.3114C66.8338 26.2521 66.1991 26.996 65.3824 27.5427C64.5655 28.0901 63.6138 28.3635 62.5271 28.3635ZM59.5952 20.2462C59.42 20.7857 59.3327 21.4129 59.3327 22.1276C59.3327 22.8424 59.42 23.4698 59.5952 24.0094C59.7701 24.5489 60.0547 24.9683 60.4483 25.2676C60.8495 25.5666 61.382 25.7159 62.0457 25.7159C62.6874 25.7159 63.2127 25.5556 63.6211 25.2347C64.0296 24.9139 64.3322 24.4835 64.529 23.9437C64.7261 23.3968 64.8244 22.7915 64.8244 22.1276C64.8244 21.4713 64.7224 20.8733 64.5181 20.3338C64.314 19.7864 63.9967 19.3526 63.5664 19.0317C63.1433 18.7033 62.5999 18.5393 61.9362 18.5393C61.3163 18.5393 60.813 18.689 60.4267 18.9879C60.0474 19.2869 59.7701 19.7063 59.5952 20.2462Z" fill="#003588"/>
<path d="M52.0026 21.0557V28.0355H54.9781V20.2683C54.9781 18.9772 54.6317 17.9343 53.9388 17.1395C53.2533 16.3372 52.2359 15.936 50.8867 15.936C50.099 15.936 49.3806 16.1112 48.7316 16.461C48.1461 16.7704 47.6464 17.22 47.2771 17.7695C46.9971 17.2662 46.6103 16.8517 46.1169 16.5267C45.5262 16.1331 44.7677 15.936 43.8415 15.936C43.0319 15.936 42.2989 16.1146 41.6426 16.472C41.1465 16.7451 40.7271 17.0929 40.3843 17.5149V16.2204H37.7589V28.0355H40.7563V20.8808C40.7563 20.2026 40.9424 19.6521 41.3144 19.229C41.6937 18.7986 42.1931 18.5836 42.8129 18.5836C43.4623 18.5836 43.969 18.8023 44.3337 19.2399C44.7056 19.67 44.8917 20.2756 44.8917 21.0557V28.0355H47.8672V20.8808C47.8672 20.4286 47.9511 20.0311 48.119 19.6883C48.2939 19.3385 48.5345 19.0684 48.841 18.8789C49.1473 18.6819 49.5083 18.5836 49.9241 18.5836C50.5732 18.5836 51.0799 18.8023 51.4446 19.2399C51.8165 19.67 52.0026 20.2756 52.0026 21.0557ZM27.0983 27.9151C27.6817 28.2287 28.4363 28.3856 29.3627 28.3856C30.5221 28.3856 31.4816 28.134 32.2402 27.6307C32.5912 27.4018 32.9111 27.1284 33.1919 26.8172V28.0355H35.8175V16.2204H32.8199V22.2154C32.8199 22.9448 32.736 23.5354 32.5683 23.9877C32.4078 24.4326 32.2 24.7717 31.9446 25.005C31.6894 25.2313 31.416 25.3843 31.1243 25.4646C30.8326 25.5449 30.5589 25.585 30.3037 25.585C29.6692 25.585 29.1769 25.4427 28.8268 25.1583C28.4873 24.8785 28.2301 24.5117 28.0828 24.0971C27.9298 23.6741 27.8386 23.2547 27.8094 22.8389C27.7802 22.4161 27.7656 22.0697 27.7656 21.7997V16.2204H24.7461V22.8499C24.7461 23.0469 24.7607 23.3605 24.7899 23.7909C24.8188 24.221 24.9028 24.6988 25.0414 25.224C25.1801 25.7417 25.41 26.2414 25.7309 26.7228C26.0588 27.204 26.515 27.6012 27.0983 27.9151ZM69.288 16.2204V28.0355H72.2854V21.9967C72.2854 21.5445 72.3474 21.1397 72.4715 20.782C72.5956 20.4176 72.7778 20.104 73.0184 19.8416C73.2592 19.5715 73.5546 19.3565 73.9046 19.1959C74.2547 19.0283 74.6449 18.9298 75.0753 18.9006C75.5127 18.8641 75.8956 18.8969 76.2238 18.9991V16.2204C75.8681 16.1767 75.5088 16.1693 75.1516 16.1985C74.7943 16.2204 74.4478 16.2822 74.1124 16.3844C73.7852 16.4756 73.4723 16.6118 73.1826 16.7892C72.8175 17.0019 72.4978 17.2845 72.2419 17.6207C72.1209 17.7794 72.0114 17.9465 71.9134 18.1217V16.2204H69.288Z" fill="#003588"/>
<path fill-rule="evenodd" clip-rule="evenodd" d="M82.4901 28.3643C81.2793 28.3643 80.2108 28.1052 79.2847 27.5875C78.3656 27.0623 77.6436 26.3441 77.1186 25.4321C76.6006 24.5132 76.3418 23.463 76.3418 22.2814C76.3418 20.9906 76.597 19.8677 77.1076 18.9121C77.618 17.9565 78.3218 17.2162 79.219 16.6913C80.1159 16.1587 81.1482 15.8926 82.3149 15.8926C83.5549 15.8926 84.6087 16.1845 85.4765 16.7679C86.3445 17.3513 86.9863 18.1718 87.402 19.2293C87.8178 20.2868 87.9637 21.5302 87.8397 22.9597H79.5435C79.6363 23.669 79.8566 24.245 80.2035 24.6881C80.685 25.2864 81.3888 25.5854 82.3149 25.5854C82.8985 25.5854 83.398 25.4576 83.8137 25.2024C84.2295 24.9472 84.5467 24.5789 84.7654 24.0975L87.7411 24.9509C87.2962 26.0303 86.5924 26.8689 85.6298 27.4668C84.6744 28.065 83.6279 28.3643 82.4901 28.3643ZM84.3171 19.2731C84.5712 19.6185 84.7419 20.1109 84.829 20.7498H79.6217C79.7377 20.2042 79.9317 19.7556 80.2035 19.4042C80.685 18.7844 81.4326 18.4744 82.4463 18.4744C83.3143 18.4744 83.9378 18.7406 84.3171 19.2731Z" fill="#003588"/>
<path d="M94.8145 28.0359V7.7041H97.7902V28.0359H94.8145Z" fill="#003588"/>
<path fill-rule="evenodd" clip-rule="evenodd" d="M101.103 27.8823C101.694 28.2031 102.412 28.3637 103.258 28.3637C104.279 28.3637 105.121 28.1886 105.785 27.8385C106.314 27.557 106.814 27.1391 107.284 26.5852V28.0355H109.888V20.8152C109.888 20.2756 109.866 19.7868 109.822 19.3495C109.778 18.9115 109.639 18.4741 109.406 18.0365C108.99 17.2488 108.378 16.6946 107.568 16.3735C106.759 16.0528 105.832 15.8923 104.789 15.8923C103.367 15.8923 102.244 16.1985 101.42 16.8114C100.596 17.4239 100.034 18.219 99.7352 19.1962L102.427 20.0493C102.616 19.5098 102.948 19.1344 103.422 18.9227C103.896 18.7111 104.352 18.6053 104.789 18.6053C105.577 18.6053 106.139 18.7695 106.474 19.0979C106.738 19.3554 106.898 19.7277 106.954 20.2149L105.522 20.4322C104.757 20.5417 104.071 20.6585 103.466 20.7823C102.86 20.9064 102.339 21.0487 101.901 21.209C101.267 21.4423 100.76 21.7343 100.381 22.0843C100.009 22.4271 99.7389 22.8246 99.571 23.2766C99.4034 23.7289 99.3195 24.2285 99.3195 24.7754C99.3195 25.4318 99.4691 26.0334 99.7681 26.5805C100.074 27.1201 100.519 27.5541 101.103 27.8823ZM105.271 25.7381C104.899 25.9278 104.439 26.0227 103.892 26.0227C103.55 26.0227 103.254 25.9716 103.006 25.8694C102.758 25.7672 102.565 25.6218 102.427 25.4318C102.295 25.235 102.23 25.0017 102.23 24.7316C102.23 24.5348 102.27 24.3563 102.35 24.1957C102.437 24.0351 102.569 23.8894 102.744 23.7581C102.926 23.6194 103.163 23.4922 103.455 23.3751C103.71 23.2803 104.005 23.1927 104.341 23.1126C104.676 23.0324 105.118 22.9448 105.665 22.8499C106.016 22.7847 106.437 22.7097 106.927 22.626C106.92 22.834 106.908 23.0691 106.89 23.3313C106.868 23.7544 106.78 24.1264 106.627 24.4472C106.547 24.6149 106.394 24.8229 106.168 25.0708C105.949 25.3186 105.65 25.5413 105.271 25.7381ZM8.32471 16.3057H0.244141V19.8246C0.244141 25.0791 4.50364 29.3389 9.75836 29.3389C15.0128 29.3389 19.2726 25.0791 19.2726 19.8246V16.3057H10.9313V10.7014C10.9313 8.47014 9.12234 6.66113 6.89106 6.66113C4.65978 6.66113 2.85078 8.47014 2.85078 10.7014H5.45741C5.45741 10.3212 5.60846 9.95654 5.87732 9.68767C6.14618 9.41881 6.51083 9.26777 6.89106 9.26777C7.27129 9.26777 7.63594 9.41881 7.9048 9.68767C8.17366 9.95654 8.32471 10.3212 8.32471 10.7014V16.3057ZM8.32471 18.9123V23.8649H10.9313V18.9123H16.6659V19.8246C16.6659 23.6397 13.5732 26.7322 9.75836 26.7322C5.94329 26.7322 2.85078 23.6397 2.85078 19.8246V18.9123H8.32471Z" fill="#003588"/>
</g>
</g>
</g>
</g>
<defs>
<clipPath id="clip0_504_2081">
<rect width="110" height="36" fill="white"/>
</clipPath>
<clipPath id="clip1_504_2081">
<rect width="110" height="36" fill="white"/>
</clipPath>
<clipPath id="clip2_504_2081">
<rect width="110" height="22.6777" fill="white" transform="translate(0 6.66113)"/>
</clipPath>
</defs>
</svg>
