<svg width="110" height="36" viewBox="0 0 110 36" fill="none" xmlns="http://www.w3.org/2000/svg">
<g clip-path="url(#clip0_504_2071)">
<g clip-path="url(#clip1_504_2071)">
<g clip-path="url(#clip2_504_2071)">
<mask id="mask0_504_2071" style="mask-type:luminance" maskUnits="userSpaceOnUse" x="0" y="1" width="110" height="34">
<path d="M0 1.19434H110V34.8054H0V1.19434Z" fill="white"/>
</mask>
<g mask="url(#mask0_504_2071)">
<path d="M45.5374 28.5721H38.0742V7.28711H45.1188C47.6473 7.28711 49.4485 7.74544 50.5226 8.66211C51.6164 9.55586 52.1649 10.8102 52.1649 12.422V13.0789C52.1649 14.2935 51.925 15.2789 51.4469 16.0352C50.9702 16.77 50.2644 17.3185 49.3294 17.676C50.3835 18.0152 51.1795 18.5514 51.7173 19.2878C52.2551 20.0059 52.5224 20.95 52.5224 22.1249V22.93C52.5224 24.7022 51.9663 26.0849 50.851 27.0795C49.7571 28.0756 47.9849 28.5721 45.5374 28.5721ZM45.1799 10.1532H41.4766V16.2429H45.1494C46.3838 16.2429 47.2882 16.0138 47.8657 15.5554C48.4432 15.0986 48.732 14.3531 48.732 13.3172V12.781C48.732 11.8842 48.4417 11.2288 47.8657 10.8102C47.3081 10.3717 46.4144 10.1532 45.1799 10.1532ZM45.0302 19.1396H41.4766V25.5563H45.0898C46.503 25.5563 47.4976 25.3286 48.0751 24.8703C48.6709 24.3936 48.9703 23.6572 48.9703 22.6627V22.0057C48.9703 21.0096 48.6526 20.2839 48.0155 19.8256C47.3784 19.3672 46.3838 19.1381 45.0302 19.1381V19.1396ZM59.8359 26.2148C60.2942 26.2148 60.722 26.1643 61.1192 26.065C61.5378 25.9459 61.9152 25.7671 62.2544 25.5272C62.9312 25.0903 63.4475 24.5036 63.8066 23.7657C64.1839 23.0293 64.3734 22.2532 64.3734 21.4374V19.5888C64.0953 19.8271 63.7073 20.0364 63.2092 20.2152C62.6133 20.4218 62.0051 20.5912 61.3881 20.7224C60.4928 20.921 59.8145 21.1104 59.3577 21.2892C58.8994 21.4695 58.5021 21.6986 58.1645 21.9767C57.8915 22.2082 57.668 22.4924 57.5075 22.8124C57.362 23.1621 57.2908 23.5383 57.2982 23.917V24.0361C57.2982 24.7129 57.5076 25.2507 57.9246 25.6479C58.3631 26.0268 59.0002 26.2148 59.8359 26.2148ZM64.8806 28.5721L64.4926 25.4677C63.9987 26.4982 63.2226 27.3676 62.2544 27.9747C61.2781 28.6118 60.0544 28.9311 58.5816 28.9311C56.9499 28.9311 55.7063 28.5431 54.8507 27.767C53.9952 26.9909 53.5674 25.9061 53.5674 24.5128V24.2439C53.5674 23.3685 53.7355 22.6122 54.0746 21.9752C54.4118 21.3194 54.9037 20.7557 55.5077 20.3328C55.7063 20.1938 55.9049 20.0731 56.1035 19.9753C56.3235 19.8546 56.5313 19.7461 56.7299 19.6468C57.2345 19.4469 57.754 19.2871 58.2837 19.1686C59.0463 18.9758 59.8124 18.7965 60.5814 18.6309C61.9946 18.3329 62.9709 18.035 63.5071 17.7356C64.0648 17.4178 64.3428 16.9197 64.3428 16.2429V16.1834C64.3428 15.4271 64.0953 14.8389 63.5973 14.4218C63.1191 14.0047 62.3139 13.7954 61.1788 13.7954C59.9841 13.7954 59.0888 14.0643 58.493 14.6006C57.9155 15.1384 57.6069 15.8946 57.5671 16.8709V17.6164H54.0441V16.8403C54.1434 15.0895 54.7912 13.6961 55.9844 12.6603C57.1989 11.6061 58.8902 11.0791 61.0596 11.0791C63.4277 11.0791 65.1205 11.5756 66.1349 12.5717C67.1692 13.5464 67.6871 14.9 67.6871 16.631V28.5721H64.8806ZM73.233 28.5721H69.8291V11.4075H72.605L73.0832 15.1093C73.343 13.7343 73.8594 12.7504 74.6355 12.1531C75.4314 11.5572 76.5666 11.2578 78.0394 11.2578H78.9637V14.8404H77.5612C77.0413 14.8359 76.522 14.8758 76.0089 14.9596C75.5705 15.0391 75.1931 15.1582 74.8738 15.3171C74.2566 15.6364 73.8288 16.1528 73.5905 16.8709C73.3521 17.5859 73.233 18.5422 73.233 19.7354V28.5721ZM86.3764 28.9602C83.9671 28.9602 82.1369 28.3139 80.8826 27.0199C79.6481 25.706 79.0309 23.8268 79.0309 21.3778V18.7806C79.0309 17.925 79.1119 17.1489 79.2707 16.4522C79.4296 15.7357 79.6588 15.0895 79.9582 14.512C80.5584 13.4139 81.4729 12.5201 82.5845 11.9453C83.6998 11.3479 84.9831 11.0485 86.4345 11.0485C88.5642 11.0485 90.2662 11.5863 91.5403 12.6603C92.8145 13.7359 93.5112 15.4072 93.6303 17.676V18.2428H89.9881V17.6775C89.8888 16.4018 89.5496 15.4775 88.9721 14.9C88.3962 14.3225 87.5498 14.0338 86.436 14.0338C85.2413 14.0338 84.2971 14.431 83.5989 15.2285C82.9221 16.0229 82.5845 17.2192 82.5845 18.8111V21.3182C82.5845 22.7711 82.913 23.8956 83.5699 24.6916C84.2467 25.4875 85.1909 25.8863 86.4055 25.8863C87.5207 25.8863 88.3656 25.5868 88.9416 24.9895C89.5405 24.3936 89.898 23.4678 90.0171 22.2135V21.526H93.6594V22.2746C93.5402 24.5617 92.8237 26.2545 91.5098 27.3484C90.2173 28.4239 88.5046 28.9602 86.3764 28.9602ZM100.817 26.2148C101.275 26.2148 101.703 26.1643 102.1 26.065C102.519 25.9459 102.896 25.7671 103.235 25.5272C103.912 25.0903 104.43 24.5036 104.788 23.7657C105.165 23.0293 105.354 22.2532 105.354 21.4374V19.5888C105.076 19.8271 104.688 20.0364 104.19 20.2152C103.594 20.4218 102.986 20.5913 102.369 20.7224C101.474 20.921 100.797 21.1104 100.339 21.2892C99.8805 21.4695 99.4832 21.6986 99.1456 21.9767C98.8726 22.2082 98.6492 22.4924 98.4887 22.8124C98.3432 23.1621 98.2719 23.5383 98.2794 23.917V24.0361C98.2794 24.7129 98.4887 25.2507 98.9057 25.6479C99.3442 26.0268 99.9813 26.2148 100.817 26.2148ZM105.862 28.5721L105.474 25.4677C104.98 26.4983 104.204 27.3677 103.235 27.9747C102.261 28.6118 101.035 28.9311 99.5627 28.9311C97.931 28.9311 96.6874 28.5431 95.8319 27.767C94.9763 26.9909 94.5485 25.9061 94.5485 24.5128V24.2439C94.5485 23.3685 94.7166 22.6122 95.0557 21.9752C95.3929 21.3194 95.8848 20.7557 96.4888 20.3328C96.6874 20.1938 96.886 20.0731 97.0846 19.9753C97.3046 19.8546 97.5124 19.7461 97.711 19.6468C98.2156 19.4469 98.7351 19.287 99.2648 19.1686C100.028 18.975 100.794 18.7957 101.564 18.6309C102.976 18.3329 103.952 18.035 104.488 17.7356C105.046 17.4178 105.325 16.9197 105.325 16.2429V16.1834C105.325 15.4271 105.076 14.8389 104.578 14.4218C104.1 14.0047 103.295 13.7954 102.16 13.7954C100.967 13.7954 100.071 14.0643 99.4741 14.6006C98.8966 15.1384 98.588 15.8946 98.5482 16.8709V17.6164H95.0252V16.8403C95.1245 15.0895 95.7723 13.6961 96.9655 12.6603C98.1801 11.6061 99.8713 11.0791 102.041 11.0791C104.409 11.0791 106.102 11.5756 107.116 12.5717C108.15 13.5464 108.668 14.9 108.668 16.631V28.5721H105.862Z" fill="#003588"/>
<path fill-rule="evenodd" clip-rule="evenodd" d="M3.78112 1.9735C4.2807 1.47545 4.95751 1.19434 5.66487 1.19434H20.851L30.2056 10.5504V30.5979C30.2056 31.3042 29.925 31.9815 29.4256 32.4809C28.9262 32.9803 28.2489 33.2609 27.5426 33.2609H23.8974V30.3657H27.312V11.7513L19.6517 4.08947H5.89556V14.7992H3.00195V3.85572C3.00195 3.14989 3.28154 2.47309 3.78112 1.9735Z" fill="#003588"/>
<path fill-rule="evenodd" clip-rule="evenodd" d="M18.8052 2.64111H21.6988V9.70403H28.7602V12.5992H18.8052V2.64111ZM11.7423 14.7915L14.7535 21.7689L22.7224 22.3831L16.648 27.3972L18.4813 34.8069L11.7438 30.8393L5.00173 34.8054L6.83506 27.3972L0.763672 22.3846L8.73256 21.7704L11.7423 14.7915ZM11.7423 22.0943L10.6973 24.5204L8.13673 24.7175L10.0831 26.3263L9.46437 28.8211L11.7408 27.4813L14.0171 28.8211L13.3999 26.3263L15.3478 24.7175L12.7873 24.5189L11.7408 22.0958L11.7423 22.0943Z" fill="#003588"/>
</g>
</g>
</g>
</g>
<defs>
<clipPath id="clip0_504_2071">
<rect width="110" height="36" fill="white"/>
</clipPath>
<clipPath id="clip1_504_2071">
<rect width="110" height="36" fill="white"/>
</clipPath>
<clipPath id="clip2_504_2071">
<rect width="110" height="33.6111" fill="white" transform="translate(0 1.19434)"/>
</clipPath>
</defs>
</svg>
