<svg width="75" height="36" viewBox="0 0 75 36" fill="none" xmlns="http://www.w3.org/2000/svg">
<g clip-path="url(#clip0_504_2023)">
<g clip-path="url(#clip1_504_2023)">
<mask id="mask0_504_2023" style="mask-type:luminance" maskUnits="userSpaceOnUse" x="-35" y="4" width="110" height="28">
<path d="M-35 4.84766H75V31.152H-35V4.84766Z" fill="white"/>
</mask>
<g mask="url(#mask0_504_2023)">
<mask id="mask1_504_2023" style="mask-type:luminance" maskUnits="userSpaceOnUse" x="-35" y="4" width="110" height="28">
<path d="M74.2703 4.84766H-34.748V31.152H74.2691L74.2703 4.84766Z" fill="white"/>
</mask>
<g mask="url(#mask1_504_2023)">
<path d="M20.6694 8.94068C18.6948 10.0992 16.8494 11.4652 15.1646 13.0155C13.4474 14.5498 11.7674 16.1253 10.1262 17.7407C9.18909 18.6465 8.27142 19.5721 7.37378 20.517L4.67878 23.3507C4.21009 23.9031 3.70313 24.4543 3.15552 25.0055C2.64857 25.5172 2.14041 26.0684 1.63346 26.6591C2.44547 26.4644 3.24683 26.2277 4.03432 25.95C4.85454 25.675 5.59704 25.4383 6.26063 25.241C6.89226 25.1115 7.5178 24.9539 8.13541 24.7687C8.799 24.5726 9.46259 24.4148 10.1262 24.2964C10.7787 24.1405 11.4472 24.0615 12.1181 24.0609C12.7764 24.0141 13.4369 24.1146 14.0515 24.355C14.7928 24.6312 15.2424 25.1035 15.399 25.7731C15.515 26.2059 15.4767 26.6196 15.2806 27.013C15.9328 26.8203 16.5777 26.6037 17.214 26.3637C17.837 26.1418 18.462 25.9254 19.0888 25.7145L22.4868 24.6504C23.6191 24.257 24.7705 23.9425 25.9423 23.7058C26.2543 23.6269 26.6262 23.5874 27.0542 23.5874C27.5241 23.548 27.9342 23.5874 28.2857 23.707C28.6373 23.8242 28.8907 24.0406 29.0474 24.355C29.2423 24.6312 29.2626 25.0449 29.1048 25.5961C28.978 25.9622 28.7305 26.2742 28.4029 26.4809C28.015 26.6922 27.6009 26.8514 27.1714 26.9544C26.7039 27.0728 26.2352 27.1708 25.7665 27.2497C25.3911 27.2738 25.0189 27.3331 24.6545 27.4267C23.3387 27.8167 22.0301 28.2305 20.7292 28.6678L16.8625 29.8479C16.1989 30.0451 15.4755 30.2424 14.696 30.4385C13.914 30.6753 13.1727 30.7135 12.4697 30.5581C12.1551 30.5024 11.8558 30.3814 11.5908 30.203C10.9273 29.6912 10.6152 29.2189 10.6535 28.7849C10.6929 28.3521 10.8687 27.9193 11.1807 27.4853H10.4777C9.06069 27.7239 7.65386 28.0195 6.26063 28.3712C5.12835 28.6869 3.97693 29.0408 2.80519 29.4354C1.67171 29.8287 0.499977 30.0846 -0.710022 30.203C-1.15306 30.2399 -1.59793 30.1582 -1.99894 29.9662C-2.42937 29.8096 -2.74024 29.4748 -2.93633 28.9619C-3.09228 28.5633 -3.09228 28.1206 -2.93633 27.722C-2.7767 27.282 -2.5596 26.8651 -2.29067 26.4821C-3.33621 27.105 -4.41159 27.6764 -5.51296 28.1943C-6.4898 28.6283 -7.23111 28.9428 -7.73926 29.1388C-8.75557 29.5729 -9.84839 30.026 -11.0201 30.4983C-12.1919 30.9706 -13.3636 31.187 -14.5342 31.1475C-15.8231 31.0686 -16.6038 30.7147 -16.8776 30.0846C-17.1502 29.4545 -17.0928 28.6678 -16.7019 27.722C-16.3503 26.738 -15.7836 25.6942 -15.0028 24.5918C-14.236 23.4695 -13.4148 22.3853 -12.5422 21.3432C-11.7493 20.4327 -10.9291 19.5463 -10.0827 18.6852C-9.59958 18.1687 -9.11133 17.6569 -8.61806 17.15L-7.79785 16.3226H-11.1373C-12.2301 16.3226 -13.3433 16.343 -14.4756 16.3824C-16.7229 16.4601 -18.9687 16.5781 -21.2119 16.7363C-23.4764 16.8547 -25.7422 17.0317 -28.0068 17.2684C-28.827 17.3856 -29.6269 17.5039 -30.4088 17.6223C-31.2373 17.7026 -32.0591 17.8409 -32.8683 18.036C-33.087 18.0816 -33.3026 18.1407 -33.5139 18.213C-33.7212 18.2915 -33.95 18.2915 -34.1572 18.213C-34.5876 18.0551 -34.7825 17.7801 -34.7431 17.3856C-34.7431 16.9528 -34.5482 16.6777 -34.1572 16.5594C-29.4195 15.3303 -24.5749 14.5588 -19.6898 14.2554C-14.7953 13.904 -9.89208 13.6875 -4.98567 13.6061C-3.97056 12.6616 -2.95546 11.7361 -1.94035 10.8298C-0.913788 9.91467 0.121296 9.00912 1.16476 8.11329C1.67172 7.64101 2.25758 7.04916 2.92237 6.34134C3.62302 5.59286 4.32606 5.12297 5.0303 4.92449C5.42128 4.80492 5.75248 4.82525 6.02628 4.98308C6.33834 5.10144 6.57269 5.31786 6.72932 5.63231C6.88476 5.90731 6.94454 6.22297 6.90508 6.57688C6.86298 6.93687 6.69734 7.27111 6.43639 7.52264C5.23726 8.53687 4.04636 9.56078 2.86378 10.5943C1.69204 11.5783 0.539436 12.603 -0.592846 13.6647C-0.00697708 13.6647 0.539436 13.7436 1.04759 13.9014C1.51628 14.0198 1.92639 14.2159 2.27672 14.4921C2.66769 14.7671 2.9415 15.1808 3.09694 15.732C3.21411 16.2055 3.15672 16.618 2.92117 16.9731C2.69493 17.2811 2.39251 17.525 2.04356 17.6809C1.68448 17.7997 1.30016 17.8204 0.930412 17.7407C0.578892 17.6223 0.305088 17.3664 0.110195 16.9731C-0.456032 16.7621 -1.04653 16.6231 -1.64741 16.5594C-2.26594 16.4455 -2.89329 16.3863 -3.5222 16.3824L-4.10806 16.9133C-5.81822 18.5554 -7.51689 20.2094 -9.20393 21.8752C-10.9615 23.6472 -12.3473 25.5567 -13.3624 27.6036C-11.9958 27.3286 -10.5897 26.9341 -9.14535 26.4223C-7.6998 25.9106 -6.27578 25.3403 -4.8685 24.7101C-3.46349 24.0803 -2.07676 23.4105 -0.710022 22.7014C0.593231 21.992 1.86353 21.2236 3.09694 20.3986C4.57114 18.8731 6.07516 17.3766 7.60813 15.9101C9.15096 14.4306 10.733 12.9926 12.3525 11.5974C13.3304 10.7299 14.3266 9.88321 15.3404 9.05786C16.3394 8.24327 17.3751 7.47486 18.4443 6.75503C18.8579 6.4466 19.3406 6.24384 19.8504 6.16438C20.3968 6.04601 20.8464 6.26242 21.1979 6.81362C21.3928 7.16873 21.4323 7.5621 21.3151 7.99492C21.2773 8.18799 21.2006 8.37134 21.0896 8.53374C20.9786 8.69615 20.8356 8.83421 20.6694 8.93949V8.94068Z" fill="#003588"/>
<path d="M54.93 26.7174C54.0309 26.7963 53.133 26.9541 52.235 27.1897C51.3754 27.3869 50.4977 27.5842 49.5986 27.7803C47.2551 28.3327 44.932 28.8636 42.628 29.3753C40.3052 29.8509 37.9594 30.2061 35.5999 30.4394C34.9381 30.5208 34.2737 30.5798 33.608 30.6164C32.924 30.6545 32.238 30.6345 31.5574 30.5566C30.8961 30.4787 30.2468 30.3201 29.624 30.0843C29 29.8877 28.4224 29.5664 27.9262 29.1398C27.5096 28.8017 27.1701 28.3786 26.9302 27.8987C26.6639 27.4485 26.5036 26.9435 26.4615 26.422C26.3821 25.9275 26.4223 25.4212 26.5787 24.9454C26.7342 24.4337 27.0271 23.9817 27.4563 23.5872C27.7313 23.3122 28.1594 23.0957 28.7464 22.9379C29.4141 22.7322 30.1006 22.5936 30.7958 22.5242C31.5352 22.4458 32.2796 22.4258 33.0221 22.4644C33.7634 22.5051 34.409 22.6426 34.9555 22.8793C35.5019 23.1149 35.8725 23.4497 36.0674 23.8837C36.3018 24.277 36.2826 24.7888 36.0088 25.4189C35.7745 25.8912 35.423 26.226 34.9543 26.4232C34.4479 26.6298 33.9164 26.7685 33.3736 26.8357C32.7877 26.8752 32.1815 26.8752 31.5574 26.8357C30.9333 26.7568 30.3857 26.6779 29.917 26.6002C30.0724 26.7568 30.3857 26.8943 30.8544 27.0127C31.3231 27.0916 31.8109 27.1514 32.319 27.1897C32.8655 27.2303 33.3533 27.2494 33.7837 27.2494H34.6625C36.5756 27.0916 38.4695 26.8166 40.3443 26.422C42.2573 26.0287 44.1512 25.615 46.026 25.1822C47.3741 24.8716 48.7212 24.5568 50.0673 24.2376C51.4149 23.8869 52.7852 23.6304 54.1684 23.47C54.7543 23.4293 55.2421 23.568 55.6331 23.8825C56.0229 24.1981 56.2763 24.5724 56.3935 25.0052C56.5107 25.3998 56.4533 25.7728 56.2177 26.1267C56.0229 26.4818 55.5936 26.6779 54.93 26.7174Z" fill="#003588"/>
<path d="M72.6094 26.7176C70.6187 26.757 68.5873 26.8168 66.5176 26.8945C64.4643 26.9362 62.4148 26.698 60.4257 26.1867C60.2622 26.1845 60.1016 26.1435 59.957 26.0671C59.7066 26.767 59.351 27.4245 58.9025 28.0172C58.4871 28.5934 57.9947 29.11 57.439 29.5525C56.8997 29.9814 56.2826 30.3022 55.6216 30.497C55.0152 30.6934 54.3657 30.7141 53.748 30.5568C53.1621 30.399 52.7317 30.1036 52.4591 29.672C52.1472 29.2392 51.9648 28.7267 51.933 28.1942C51.8952 27.6328 51.9746 27.0697 52.1662 26.5406C52.3228 25.9894 52.5571 25.4968 52.8692 25.064C53.3798 24.4317 54.0461 23.943 54.8026 23.6459C55.5458 23.3331 56.3754 23.2916 57.1461 23.5288C57.2238 22.9776 57.5358 22.5435 58.0823 22.2291C58.6299 21.9134 59.2157 21.9541 59.8399 22.3475C60.4268 22.7021 61.0569 22.9798 61.7146 23.1736C62.4177 23.3315 63.1399 23.4295 63.8824 23.469C64.6237 23.5084 65.3458 23.5288 66.0489 23.5288C66.7513 23.4902 67.4546 23.4703 68.158 23.469C68.9388 23.469 69.7781 23.4295 70.6761 23.3518C71.5752 23.2322 72.3954 23.292 73.1367 23.5288C73.5672 23.6854 73.8601 23.9413 74.0155 24.2964C74.2104 24.6503 74.269 25.0054 74.1913 25.3605C74.1499 25.7203 73.9841 26.0544 73.7226 26.3051C73.45 26.5801 73.0769 26.7176 72.6094 26.7176ZM55.0955 27.4852C55.2127 27.368 55.447 27.3082 55.7986 27.3082V26.7773C55.6881 26.8835 55.5707 26.9822 55.447 27.0727C55.2822 27.1612 55.1567 27.3084 55.0955 27.4852Z" fill="#003588"/>
</g>
</g>
</g>
</g>
<defs>
<clipPath id="clip0_504_2023">
<rect width="110" height="36" fill="white" transform="translate(-35)"/>
</clipPath>
<clipPath id="clip1_504_2023">
<rect width="110" height="26.3043" fill="white" transform="translate(-35 4.84766)"/>
</clipPath>
</defs>
</svg>
