<svg width="110" height="36" viewBox="0 0 110 36" fill="none" xmlns="http://www.w3.org/2000/svg">
<g clip-path="url(#clip0_504_2037)">
<g clip-path="url(#clip1_504_2037)">
<g clip-path="url(#clip2_504_2037)">
<mask id="mask0_504_2037" style="mask-type:luminance" maskUnits="userSpaceOnUse" x="0" y="0" width="110" height="36">
<path d="M0 0.95752H110V35.042H0V0.95752Z" fill="white"/>
</mask>
<g mask="url(#mask0_504_2037)">
<path d="M59.1761 27.7804L51.7642 18.5094L58.7051 10.3105H54.1207L47.939 18.1159V10.3105H44.2207V27.7804H47.939V22.4105L49.3024 20.7869L54.5932 27.7804H59.1761Z" fill="#003588"/>
<path d="M67.9208 28.095C73.2117 28.095 77.0617 24.3224 77.0617 19.0579C77.0617 13.7934 73.2117 10.0224 67.9208 10.0224C62.6563 10.0224 58.8063 13.7934 58.8063 19.0579C58.8063 24.3224 62.6563 28.095 67.9208 28.095ZM67.9208 24.795C64.6983 24.795 62.63 22.3068 62.63 19.0579C62.63 15.7843 64.6998 13.3224 67.9208 13.3224C71.1434 13.3224 73.238 15.7858 73.238 19.0579C73.238 22.3068 71.1434 24.795 67.9208 24.795ZM89.1539 27.7805C92.4803 27.7805 94.2356 25.6858 94.2356 23.066C94.2356 20.866 92.7436 19.0595 90.8829 18.7713C92.5329 18.4305 93.8948 16.9633 93.8948 14.7633C93.8948 12.4316 92.1936 10.3106 88.8658 10.3106H79.6738V27.7805H89.1555H89.1539ZM88.0539 17.3041H83.3921V13.5068H88.0555C89.3104 13.5068 90.0974 14.3186 90.0974 15.4186C90.0974 16.5186 89.3104 17.3041 88.0539 17.3041ZM88.1856 24.5595H83.3921V20.5003H88.1856C89.6528 20.5003 90.4383 21.4423 90.4383 22.5423C90.4383 23.7988 89.6001 24.5595 88.1856 24.5595ZM109.405 27.7805V24.5068H100.761V20.5515H109.22V17.2778H100.761V13.5843H109.406V10.3106H97.0429V27.7805H109.405ZM33.7093 9.88766V5.67667H19.2993V0.95752H14.687V5.67667H0.605469V9.88766H14.7258V13.6989H4.01702V30.6498H8.37209V17.9084H14.7242V35.042H19.2265V17.9084H26.1596V25.895C26.1596 26.2947 25.9783 26.476 25.3973 26.476C24.8163 26.476 22.6752 26.476 20.8594 26.4032C21.476 27.5651 22.1298 29.4165 22.3111 30.6498C25.1432 30.6498 27.2115 30.577 28.736 29.9247C30.2234 29.2709 30.6603 28.0361 30.6603 25.9678V13.6974H19.2265V9.88611L33.7093 9.88766Z" fill="#003588"/>
</g>
</g>
</g>
</g>
<defs>
<clipPath id="clip0_504_2037">
<rect width="110" height="36" fill="white"/>
</clipPath>
<clipPath id="clip1_504_2037">
<rect width="110" height="36" fill="white"/>
</clipPath>
<clipPath id="clip2_504_2037">
<rect width="110" height="34.0845" fill="white" transform="translate(0 0.95752)"/>
</clipPath>
</defs>
</svg>
