<svg width="128" height="128" viewBox="0 0 128 128" fill="none" xmlns="http://www.w3.org/2000/svg">
<g filter="url(#filter0_d_504_1984)">
<path d="M20 32C20 18.7452 30.7452 8 44 8H84C97.2548 8 108 18.7452 108 32V72C108 85.2548 97.2548 96 84 96H44C30.7452 96 20 85.2548 20 72V32Z" fill="white" shape-rendering="crispEdges"/>
<path d="M44 8.75H84C96.8406 8.75 107.25 19.1594 107.25 32V72C107.25 84.8406 96.8406 95.25 84 95.25H44C31.1594 95.25 20.75 84.8406 20.75 72V32C20.75 19.1594 31.1594 8.75 44 8.75Z" stroke="#EC407A" stroke-opacity="0.2" stroke-width="1.5" shape-rendering="crispEdges"/>
<path d="M64.4198 51.9998C67.1211 51.9998 69.7117 50.9267 71.6218 49.0166C73.5319 47.1065 74.605 44.5159 74.605 41.8146C74.605 39.1133 73.5319 36.5227 71.6218 34.6126C69.7117 32.7025 67.1211 31.6294 64.4198 31.6294C61.7185 31.6294 59.1279 32.7025 57.2178 34.6126C55.3077 36.5227 54.2346 39.1133 54.2346 41.8146C54.2346 44.5159 55.3077 47.1065 57.2178 49.0166C59.1279 50.9267 61.7185 51.9998 64.4198 51.9998ZM56.7809 56.3921C50.8926 58.1188 46.5957 63.5615 46.5957 70.0069C46.5957 71.3118 47.654 72.3701 48.959 72.3701H79.8806C81.1855 72.3701 82.2439 71.3118 82.2439 70.0069C82.2439 63.5615 77.947 58.1188 72.0587 56.3921V60.4344C74.2548 60.9993 75.8781 62.9966 75.8781 65.3678V68.5507C75.8781 69.2509 75.3052 69.8238 74.605 69.8238H73.3318C72.6316 69.8238 72.0587 69.2509 72.0587 68.5507C72.0587 67.8505 72.6316 67.2775 73.3318 67.2775V65.3678C73.3318 63.9594 72.1939 62.8215 70.7855 62.8215C69.3771 62.8215 68.2392 63.9594 68.2392 65.3678V67.2775C68.9395 67.2775 69.5124 67.8505 69.5124 68.5507C69.5124 69.2509 68.9395 69.8238 68.2392 69.8238H66.9661C66.2658 69.8238 65.6929 69.2509 65.6929 68.5507V65.3678C65.6929 62.9966 67.3162 60.9993 69.5124 60.4344V55.8908C69.0349 55.8431 68.5496 55.8192 68.0562 55.8192H60.7833C60.29 55.8192 59.8046 55.8431 59.3272 55.8908V61.0948C61.1653 61.6439 62.5101 63.3467 62.5101 65.3678C62.5101 67.8266 60.5128 69.8238 58.054 69.8238C55.5953 69.8238 53.598 67.8266 53.598 65.3678C53.598 63.3467 54.9428 61.6439 56.7809 61.0948V56.3921ZM58.054 67.2775C58.5605 67.2775 59.0463 67.0763 59.4044 66.7182C59.7626 66.3601 59.9638 65.8743 59.9638 65.3678C59.9638 64.8613 59.7626 64.3756 59.4044 64.0174C59.0463 63.6593 58.5605 63.4581 58.054 63.4581C57.5475 63.4581 57.0618 63.6593 56.7037 64.0174C56.3455 64.3756 56.1443 64.8613 56.1443 65.3678C56.1443 65.8743 56.3455 66.3601 56.7037 66.7182C57.0618 67.0763 57.5475 67.2775 58.054 67.2775Z" fill="#FF6B6B"/>
</g>
<defs>
<filter id="filter0_d_504_1984" x="0" y="0" width="128" height="128" filterUnits="userSpaceOnUse" color-interpolation-filters="sRGB">
<feFlood flood-opacity="0" result="BackgroundImageFix"/>
<feColorMatrix in="SourceAlpha" type="matrix" values="0 0 0 0 0 0 0 0 0 0 0 0 0 0 0 0 0 0 127 0" result="hardAlpha"/>
<feOffset dy="12"/>
<feGaussianBlur stdDeviation="10"/>
<feComposite in2="hardAlpha" operator="out"/>
<feColorMatrix type="matrix" values="0 0 0 0 0.460625 0 0 0 0 0.089375 0 0 0 0 0.169813 0 0 0 0.1 0"/>
<feBlend mode="normal" in2="BackgroundImageFix" result="effect1_dropShadow_504_1984"/>
<feBlend mode="normal" in="SourceGraphic" in2="effect1_dropShadow_504_1984" result="shape"/>
</filter>
</defs>
</svg>
