<svg width="64" height="64" viewBox="0 0 64 64" fill="none" xmlns="http://www.w3.org/2000/svg">
<path fill-rule="evenodd" clip-rule="evenodd" d="M33.376 5.78686C33.0045 5.43462 32.512 5.23828 32 5.23828C31.488 5.23828 30.9956 5.43462 30.624 5.78686C24.9634 11.1625 17.4243 14.1104 9.61868 14.0002C9.19344 13.9947 8.77751 14.1248 8.43128 14.3718C8.08506 14.6188 7.82657 14.9697 7.69335 15.3735C6.56795 18.8033 5.99633 22.3905 6.00002 26.0002C6.00002 41.8455 16.8374 55.1549 31.5014 58.9282C31.8284 59.0125 32.1716 59.0125 32.4987 58.9282C47.1627 55.1549 58 41.8455 58 26.0002C58 22.2935 57.4053 18.7202 56.3067 15.3735C56.1739 14.9692 55.9156 14.6177 55.5694 14.3702C55.2231 14.1227 54.8069 13.9922 54.3813 13.9975L54 14.0002C46.0107 14.0002 38.7547 10.8802 33.376 5.78686ZM41.6267 27.1629C41.7867 26.9497 41.9025 26.7066 41.9672 26.4481C42.0319 26.1895 42.0443 25.9206 42.0036 25.6571C41.9629 25.3937 41.87 25.1411 41.7303 24.9141C41.5906 24.687 41.4069 24.4903 41.19 24.3353C40.9732 24.1803 40.7275 24.0702 40.4675 24.0115C40.2075 23.9528 39.9384 23.9466 39.676 23.9934C39.4135 24.0402 39.1631 24.139 38.9394 24.284C38.7157 24.4289 38.5233 24.6171 38.3734 24.8375L29.744 36.9175L25.4134 32.5869C25.0342 32.2336 24.5328 32.0412 24.0146 32.0504C23.4965 32.0595 23.0021 32.2694 22.6357 32.6359C22.2693 33.0023 22.0594 33.4967 22.0502 34.0148C22.0411 34.5329 22.2334 35.0344 22.5867 35.4135L28.5867 41.4135C28.792 41.6187 29.0395 41.7767 29.312 41.8766C29.5845 41.9765 29.8755 42.0159 30.1647 41.992C30.454 41.9682 30.7346 41.8816 30.987 41.7385C31.2395 41.5953 31.4578 41.3989 31.6267 41.1629L41.6267 27.1629Z" fill="#FF6B6B"/>
</svg>
