<svg width="128" height="128" viewBox="0 0 128 128" fill="none" xmlns="http://www.w3.org/2000/svg">
<g filter="url(#filter0_d_504_1996)">
<path d="M20 32C20 18.7452 30.7452 8 44 8H84C97.2548 8 108 18.7452 108 32V72C108 85.2548 97.2548 96 84 96H44C30.7452 96 20 85.2548 20 72V32Z" fill="white" shape-rendering="crispEdges"/>
<path d="M44 8.75H84C96.8406 8.75 107.25 19.1594 107.25 32V72C107.25 84.8406 96.8406 95.25 84 95.25H44C31.1594 95.25 20.75 84.8406 20.75 72V32C20.75 19.1594 31.1594 8.75 44 8.75Z" stroke="#EC407A" stroke-opacity="0.2" stroke-width="1.5" shape-rendering="crispEdges"/>
<path d="M82.4199 55.5603V63.6999C82.4199 65.1321 81.851 66.5056 80.8383 67.5183C79.8256 68.531 78.4521 69.0999 77.0199 69.0999H51.8199C50.3878 69.0999 49.0142 68.531 48.0015 67.5183C46.9888 66.5056 46.4199 65.1321 46.4199 63.6999V55.5603L47.4153 56.0589C52.6909 58.7162 58.516 60.1001 64.423 60.0995C70.3301 60.0989 76.1549 58.7138 81.4299 56.0553L82.4199 55.5603ZM68.0199 34.8999C69.4521 34.8999 70.8256 35.4688 71.8383 36.4815C72.851 37.4942 73.4199 38.8677 73.4199 40.2999V42.0999H77.0199C78.4521 42.0999 79.8256 42.6688 80.8383 43.6815C81.851 44.6942 82.4199 46.0677 82.4199 47.4999V51.5355L79.8153 52.8387C75.1551 55.1876 70.0192 56.439 64.8007 56.4971C59.5823 56.5551 54.4198 55.4182 49.7085 53.1735L48.5439 52.5975L46.4199 51.5355V47.4999C46.4199 46.0677 46.9888 44.6942 48.0015 43.6815C49.0142 42.6688 50.3878 42.0999 51.8199 42.0999H55.4199V40.2999C55.4199 38.8677 55.9888 37.4942 57.0015 36.4815C58.0142 35.4688 59.3878 34.8999 60.8199 34.8999H68.0199ZM64.4199 49.2999C63.9425 49.2999 63.4847 49.4895 63.1471 49.8271C62.8096 50.1647 62.6199 50.6225 62.6199 51.0999C62.6187 51.3363 62.6641 51.5706 62.7535 51.7894C62.8429 52.0083 62.9745 52.2073 63.1408 52.3753C63.3071 52.5433 63.5048 52.6769 63.7228 52.7684C63.9407 52.86 64.1745 52.9077 64.4109 52.9089C64.6473 52.9101 64.8816 52.8647 65.1004 52.7753C65.3193 52.686 65.5184 52.5544 65.6863 52.3881C65.8543 52.2217 65.9879 52.024 66.0795 51.806C66.171 51.5881 66.2187 51.3543 66.2199 51.1179C66.2199 50.1063 65.4135 49.2999 64.4199 49.2999ZM68.0199 38.4999H60.8199C60.3425 38.4999 59.8847 38.6895 59.5471 39.0271C59.2096 39.3647 59.0199 39.8225 59.0199 40.2999V42.0999H69.8199V40.2999C69.8199 39.8225 69.6303 39.3647 69.2927 39.0271C68.9551 38.6895 68.4973 38.4999 68.0199 38.4999Z" fill="#FF6B6B"/>
</g>
<defs>
<filter id="filter0_d_504_1996" x="0" y="0" width="128" height="128" filterUnits="userSpaceOnUse" color-interpolation-filters="sRGB">
<feFlood flood-opacity="0" result="BackgroundImageFix"/>
<feColorMatrix in="SourceAlpha" type="matrix" values="0 0 0 0 0 0 0 0 0 0 0 0 0 0 0 0 0 0 127 0" result="hardAlpha"/>
<feOffset dy="12"/>
<feGaussianBlur stdDeviation="10"/>
<feComposite in2="hardAlpha" operator="out"/>
<feColorMatrix type="matrix" values="0 0 0 0 0.460625 0 0 0 0 0.089375 0 0 0 0 0.169813 0 0 0 0.1 0"/>
<feBlend mode="normal" in2="BackgroundImageFix" result="effect1_dropShadow_504_1996"/>
<feBlend mode="normal" in="SourceGraphic" in2="effect1_dropShadow_504_1996" result="shape"/>
</filter>
</defs>
</svg>
